<svg width="172" height="48" viewBox="0 0 172 48" fill="none" xmlns="http://www.w3.org/2000/svg">
<g clip-path="url(#clip0_3004_7630)">
<path d="M90.7216 0.0406603C90.7216 0.0406603 88.9591 -0.239731 86.5157 1.24234C84.9936 2.16362 84.4328 2.04345 84.1925 1.80312C84.0723 1.60284 83.7919 1.6429 83.7118 1.84318C83.5917 2.12357 83.6718 2.52413 84.553 3.08491C86.2353 4.12636 89.56 4.60703 92.2838 4.16642C95.0076 3.7258 96.3294 3.76586 96.3294 3.76586C96.3294 3.76586 96.6899 3.04485 95.7286 2.52413C94.7672 2.04345 92.0835 -0.0795074 90.7216 0.0406603Z" fill="white"/>
<path d="M72.3355 7.89059C74.9792 6.00797 78.1436 4.56595 81.5484 4.64607C81.7887 4.64607 82.0291 4.64607 82.2694 4.60601C83.1907 4.5259 85.9545 4.60601 89.5195 8.21104C93.8456 12.6172 96.8898 9.21244 97.0901 9.01216C97.2503 8.85193 101.176 7.08948 104.14 9.73316C104.18 9.77322 104.18 9.77322 104.22 9.81328C106.143 11.5357 105.342 14.7001 102.818 15.3009C97.8111 16.4225 90.2005 17.3438 82.71 15.2208C79.2652 14.2194 76.3812 13.7788 74.0179 13.6987C71.0137 13.4984 69.8921 9.65305 72.3355 7.89059Z" fill="white"/>
<path d="M60.0391 20.6292C60.0391 20.6292 68.2505 16.3432 81.5491 17.3046C94.8076 18.306 102.498 20.469 110.269 17.3046C110.269 17.3046 106.384 21.7908 79.3861 20.9096C79.3861 20.9096 61.8816 20.2687 60.0391 20.6292Z" fill="white"/>
<path d="M53.75 24.5927C53.75 24.5927 72.7365 23.4712 79.7062 22.6701C86.6759 21.8689 116.357 23.9919 118.52 24.7129C120.683 25.4339 96.6499 24.9933 90.2009 26.4353C83.7919 27.8773 58.5968 27.1563 53.75 24.5927Z" fill="white"/>
</g>
<path d="M1.12705 43.5508V34.0455H2.94663L6.99316 40.7535H6.02905L10.0077 34.0455H11.8137L11.8408 43.5508H9.77684L9.76326 37.2094H10.1435L6.966 42.5459H5.97474L2.72937 37.2094H3.19105V43.5508H1.12705ZM17.4228 43.6594C16.6443 43.6594 15.9518 43.4965 15.3453 43.1706C14.7478 42.8447 14.2725 42.4011 13.9195 41.8398C13.5755 41.2695 13.4035 40.6223 13.4035 39.898C13.4035 39.1648 13.5755 38.5175 13.9195 37.9563C14.2725 37.3859 14.7478 36.9424 15.3453 36.6255C15.9518 36.2996 16.6443 36.1367 17.4228 36.1367C18.1923 36.1367 18.8803 36.2996 19.4868 36.6255C20.0934 36.9424 20.5686 37.3814 20.9126 37.9427C21.2566 38.5039 21.4286 39.1557 21.4286 39.898C21.4286 40.6223 21.2566 41.2695 20.9126 41.8398C20.5686 42.4011 20.0934 42.8447 19.4868 43.1706C18.8803 43.4965 18.1923 43.6594 17.4228 43.6594ZM17.4228 41.9213C17.7759 41.9213 18.0927 41.8398 18.3734 41.6769C18.654 41.5139 18.8758 41.2831 19.0387 40.9844C19.2017 40.6766 19.2832 40.3145 19.2832 39.898C19.2832 39.4726 19.2017 39.1105 19.0387 38.8117C18.8758 38.513 18.654 38.2821 18.3734 38.1192C18.0927 37.9563 17.7759 37.8748 17.4228 37.8748C17.0698 37.8748 16.753 37.9563 16.4723 38.1192C16.1917 38.2821 15.9654 38.513 15.7934 38.8117C15.6304 39.1105 15.549 39.4726 15.549 39.898C15.549 40.3145 15.6304 40.6766 15.7934 40.9844C15.9654 41.2831 16.1917 41.5139 16.4723 41.6769C16.753 41.8398 17.0698 41.9213 17.4228 41.9213ZM25.927 43.6594C25.3205 43.6594 24.7773 43.5417 24.2975 43.3064C23.8268 43.071 23.4601 42.7134 23.1976 42.2336C22.9351 41.7448 22.8038 41.1247 22.8038 40.3733V36.2453H24.9221V40.061C24.9221 40.6675 25.0489 41.1156 25.3024 41.4053C25.5649 41.6859 25.9315 41.8263 26.4022 41.8263C26.7281 41.8263 27.0178 41.7584 27.2713 41.6226C27.5248 41.4777 27.7239 41.2605 27.8688 40.9708C28.0136 40.672 28.086 40.3009 28.086 39.8573V36.2453H30.2044V43.5508H28.1947V41.5411L28.5613 42.125C28.3169 42.6319 27.9548 43.0167 27.475 43.2792C27.0042 43.5327 26.4882 43.6594 25.927 43.6594ZM36.6071 36.1367C37.1865 36.1367 37.7025 36.2544 38.1551 36.4897C38.6168 36.716 38.9789 37.0691 39.2415 37.5489C39.504 38.0196 39.6352 38.6261 39.6352 39.3685V43.5508H37.5169V39.6944C37.5169 39.1059 37.3857 38.6714 37.1231 38.3908C36.8697 38.1101 36.5076 37.9698 36.0368 37.9698C35.7019 37.9698 35.3986 38.0423 35.127 38.1871C34.8645 38.3229 34.6563 38.5356 34.5024 38.8253C34.3576 39.115 34.2851 39.4861 34.2851 39.9388V43.5508H32.1668V36.2453H34.1901V38.2686L33.8099 37.6575C34.0724 37.1687 34.4481 36.793 34.9369 36.5305C35.4258 36.2679 35.9825 36.1367 36.6071 36.1367ZM44.5428 43.6594C43.6828 43.6594 43.0129 43.4421 42.5331 43.0076C42.0533 42.564 41.8134 41.9077 41.8134 41.0387V34.6294H43.9317V41.0115C43.9317 41.3193 44.0132 41.5592 44.1761 41.7312C44.3391 41.8941 44.5609 41.9756 44.8415 41.9756C45.1764 41.9756 45.4616 41.8851 45.697 41.704L46.2673 43.1977C46.05 43.3516 45.7875 43.4693 45.4797 43.5508C45.181 43.6232 44.8687 43.6594 44.5428 43.6594ZM40.6863 38.0377V36.4083H45.7513V38.0377H40.6863ZM51.9375 43.5508V42.125L51.8017 41.8127V39.2598C51.8017 38.8072 51.6614 38.4541 51.3807 38.2007C51.1091 37.9472 50.6882 37.8205 50.1179 37.8205C49.7286 37.8205 49.3439 37.8838 48.9637 38.0106C48.5925 38.1283 48.2757 38.2912 48.0131 38.4994L47.2527 37.0193C47.651 36.7387 48.1308 36.5214 48.6921 36.3675C49.2534 36.2136 49.8237 36.1367 50.403 36.1367C51.5165 36.1367 52.381 36.3992 52.9966 36.9243C53.6122 37.4493 53.92 38.2686 53.92 39.382V43.5508H51.9375ZM49.7105 43.6594C49.1402 43.6594 48.6514 43.5644 48.244 43.3743C47.8366 43.1751 47.5243 42.908 47.307 42.5731C47.0898 42.2381 46.9811 41.8625 46.9811 41.446C46.9811 41.0115 47.0852 40.6313 47.2935 40.3054C47.5107 39.9795 47.8502 39.726 48.3119 39.545C48.7736 39.3549 49.3756 39.2598 50.1179 39.2598H52.0597V40.4955H50.3487C49.8508 40.4955 49.5068 40.577 49.3167 40.7399C49.1357 40.9029 49.0451 41.1066 49.0451 41.351C49.0451 41.6226 49.1492 41.8398 49.3575 42.0028C49.5747 42.1567 49.8689 42.2336 50.2401 42.2336C50.5931 42.2336 50.91 42.1521 51.1906 41.9892C51.4712 41.8172 51.6749 41.5683 51.8017 41.2424L52.1276 42.22C51.9737 42.6908 51.693 43.0484 51.2857 43.2928C50.8783 43.5372 50.3532 43.6594 49.7105 43.6594ZM55.8372 43.5508V36.2453H57.9555V43.5508H55.8372ZM56.8963 35.2269C56.5071 35.2269 56.1902 35.1137 55.9458 34.8874C55.7014 34.6611 55.5792 34.3805 55.5792 34.0455C55.5792 33.7106 55.7014 33.4299 55.9458 33.2036C56.1902 32.9773 56.5071 32.8641 56.8963 32.8641C57.2856 32.8641 57.6024 32.9728 57.8468 33.19C58.0913 33.3983 58.2135 33.6698 58.2135 34.0048C58.2135 34.3578 58.0913 34.652 57.8468 34.8874C57.6115 35.1137 57.2946 35.2269 56.8963 35.2269ZM64.3618 36.1367C64.9411 36.1367 65.4571 36.2544 65.9098 36.4897C66.3715 36.716 66.7336 37.0691 66.9961 37.5489C67.2586 38.0196 67.3899 38.6261 67.3899 39.3685V43.5508H65.2716V39.6944C65.2716 39.1059 65.1403 38.6714 64.8778 38.3908C64.6243 38.1101 64.2622 37.9698 63.7915 37.9698C63.4565 37.9698 63.1532 38.0423 62.8817 38.1871C62.6191 38.3229 62.4109 38.5356 62.257 38.8253C62.1122 39.115 62.0398 39.4861 62.0398 39.9388V43.5508H59.9215V36.2453H61.9447V38.2686L61.5645 37.6575C61.827 37.1687 62.2027 36.793 62.6916 36.5305C63.1804 36.2679 63.7371 36.1367 64.3618 36.1367ZM73.305 43.5508V34.0455H77.949C79.1439 34.0455 80.0402 34.2718 80.6376 34.7245C81.2442 35.1771 81.5474 35.7746 81.5474 36.5169C81.5474 37.0148 81.4252 37.4493 81.1808 37.8205C80.9364 38.1826 80.6014 38.4632 80.1759 38.6624C79.7505 38.8615 79.2616 38.9611 78.7094 38.9611L78.9674 38.4044C79.5649 38.4044 80.0945 38.5039 80.5562 38.7031C81.0178 38.8932 81.3754 39.1784 81.6289 39.5586C81.8914 39.9388 82.0227 40.405 82.0227 40.9572C82.0227 41.7719 81.7013 42.4101 81.0586 42.8718C80.4158 43.3245 79.4698 43.5508 78.2206 43.5508H73.305ZM75.4912 41.8941H78.0576C78.6279 41.8941 79.0579 41.8036 79.3476 41.6226C79.6464 41.4325 79.7957 41.1337 79.7957 40.7264C79.7957 40.328 79.6464 40.0338 79.3476 39.8437C79.0579 39.6446 78.6279 39.545 78.0576 39.545H75.3283V37.9427H77.6774C78.2115 37.9427 78.6189 37.8521 78.8995 37.6711C79.1892 37.481 79.334 37.1958 79.334 36.8156C79.334 36.4445 79.1892 36.1684 78.8995 35.9873C78.6189 35.7972 78.2115 35.7021 77.6774 35.7021H75.4912V41.8941ZM83.5387 43.5508V36.2453H85.562V38.3093L85.2768 37.7118C85.4941 37.1958 85.8426 36.8066 86.3224 36.544C86.8022 36.2725 87.3861 36.1367 88.0741 36.1367V38.092C87.9836 38.083 87.9021 38.0785 87.8297 38.0785C87.7573 38.0694 87.6803 38.0649 87.5988 38.0649C87.0195 38.0649 86.5487 38.2324 86.1866 38.5673C85.8336 38.8932 85.6571 39.4047 85.6571 40.1017V43.5508H83.5387ZM92.9062 43.6594C92.0734 43.6594 91.3401 43.4965 90.7064 43.1706C90.0818 42.8447 89.5975 42.4011 89.2535 41.8398C88.9095 41.2695 88.7375 40.6223 88.7375 39.898C88.7375 39.1648 88.9049 38.5175 89.2399 37.9563C89.5839 37.3859 90.0501 36.9424 90.6385 36.6255C91.2269 36.2996 91.8923 36.1367 92.6346 36.1367C93.3498 36.1367 93.9925 36.2906 94.5628 36.5984C95.1422 36.8971 95.5994 37.3316 95.9343 37.9019C96.2693 38.4632 96.4367 39.1376 96.4367 39.9252C96.4367 40.0067 96.4322 40.1017 96.4232 40.2104C96.4141 40.3099 96.405 40.405 96.396 40.4955H90.462V39.2598H95.2825L94.4678 39.6265C94.4678 39.2463 94.3908 38.9158 94.2369 38.6352C94.083 38.3546 93.8703 38.1373 93.5987 37.9834C93.3272 37.8205 93.0103 37.739 92.6482 37.739C92.2861 37.739 91.9647 37.8205 91.6841 37.9834C91.4125 38.1373 91.1998 38.3591 91.0459 38.6488C90.892 38.9294 90.815 39.2644 90.815 39.6536V39.9795C90.815 40.3778 90.901 40.7309 91.073 41.0387C91.2541 41.3374 91.503 41.5683 91.8199 41.7312C92.1458 41.8851 92.526 41.962 92.9605 41.962C93.3498 41.962 93.6893 41.9032 93.9789 41.7855C94.2777 41.6678 94.5493 41.4913 94.7937 41.2559L95.9207 42.478C95.5858 42.8583 95.1648 43.1525 94.6579 43.3607C94.1509 43.5598 93.567 43.6594 92.9062 43.6594ZM101.473 43.6594C100.64 43.6594 99.9065 43.4965 99.2728 43.1706C98.6482 42.8447 98.1639 42.4011 97.8199 41.8398C97.4759 41.2695 97.3039 40.6223 97.3039 39.898C97.3039 39.1648 97.4713 38.5175 97.8063 37.9563C98.1503 37.3859 98.6165 36.9424 99.2049 36.6255C99.7933 36.2996 100.459 36.1367 101.201 36.1367C101.916 36.1367 102.559 36.2906 103.129 36.5984C103.709 36.8971 104.166 37.3316 104.501 37.9019C104.836 38.4632 105.003 39.1376 105.003 39.9252C105.003 40.0067 104.999 40.1017 104.99 40.2104C104.981 40.3099 104.971 40.405 104.962 40.4955H99.0284V39.2598H103.849L103.034 39.6265C103.034 39.2463 102.957 38.9158 102.803 38.6352C102.649 38.3546 102.437 38.1373 102.165 37.9834C101.894 37.8205 101.577 37.739 101.215 37.739C100.853 37.739 100.531 37.8205 100.251 37.9834C99.9789 38.1373 99.7662 38.3591 99.6123 38.6488C99.4584 38.9294 99.3815 39.2644 99.3815 39.6536V39.9795C99.3815 40.3778 99.4675 40.7309 99.6395 41.0387C99.8205 41.3374 100.069 41.5683 100.386 41.7312C100.712 41.8851 101.092 41.962 101.527 41.962C101.916 41.962 102.256 41.9032 102.545 41.7855C102.844 41.6678 103.116 41.4913 103.36 41.2559L104.487 42.478C104.152 42.8583 103.731 43.1525 103.224 43.3607C102.717 43.5598 102.133 43.6594 101.473 43.6594ZM105.845 43.5508V42.2744L110.163 37.1687L110.529 37.8748H105.94V36.2453H112.24V37.5217L107.922 42.6274L107.542 41.9213H112.363V43.5508H105.845ZM117.253 43.6594C116.42 43.6594 115.687 43.4965 115.053 43.1706C114.428 42.8447 113.944 42.4011 113.6 41.8398C113.256 41.2695 113.084 40.6223 113.084 39.898C113.084 39.1648 113.252 38.5175 113.587 37.9563C113.931 37.3859 114.397 36.9424 114.985 36.6255C115.574 36.2996 116.239 36.1367 116.981 36.1367C117.696 36.1367 118.339 36.2906 118.909 36.5984C119.489 36.8971 119.946 37.3316 120.281 37.9019C120.616 38.4632 120.783 39.1376 120.783 39.9252C120.783 40.0067 120.779 40.1017 120.77 40.2104C120.761 40.3099 120.752 40.405 120.743 40.4955H114.809V39.2598H119.629L118.814 39.6265C118.814 39.2463 118.737 38.9158 118.584 38.6352C118.43 38.3546 118.217 38.1373 117.945 37.9834C117.674 37.8205 117.357 37.739 116.995 37.739C116.633 37.739 116.311 37.8205 116.031 37.9834C115.759 38.1373 115.546 38.3591 115.393 38.6488C115.239 38.9294 115.162 39.2644 115.162 39.6536V39.9795C115.162 40.3778 115.248 40.7309 115.42 41.0387C115.601 41.3374 115.85 41.5683 116.167 41.7312C116.492 41.8851 116.873 41.962 117.307 41.962C117.696 41.962 118.036 41.9032 118.326 41.7855C118.624 41.6678 118.896 41.4913 119.14 41.2559L120.267 42.478C119.932 42.8583 119.511 43.1525 119.005 43.3607C118.498 43.5598 117.914 43.6594 117.253 43.6594ZM126.189 43.5508V34.0455H130.303C131.154 34.0455 131.887 34.1858 132.503 34.4665C133.118 34.738 133.594 35.1318 133.929 35.6478C134.264 36.1638 134.431 36.7794 134.431 37.4946C134.431 38.2007 134.264 38.8117 133.929 39.3277C133.594 39.8347 133.118 40.2239 132.503 40.4955C131.887 40.7671 131.154 40.9029 130.303 40.9029H127.411L128.388 39.9388V43.5508H126.189ZM132.231 43.5508L129.855 40.1017H132.204L134.608 43.5508H132.231ZM128.388 40.1832L127.411 39.1512H130.181C130.86 39.1512 131.367 39.0064 131.702 38.7167C132.037 38.4179 132.204 38.0106 132.204 37.4946C132.204 36.9695 132.037 36.5621 131.702 36.2725C131.367 35.9828 130.86 35.8379 130.181 35.8379H127.411L128.388 34.7924V40.1832ZM139.65 43.6594C138.817 43.6594 138.084 43.4965 137.45 43.1706C136.826 42.8447 136.341 42.4011 135.997 41.8398C135.653 41.2695 135.481 40.6223 135.481 39.898C135.481 39.1648 135.649 38.5175 135.984 37.9563C136.328 37.3859 136.794 36.9424 137.382 36.6255C137.971 36.2996 138.636 36.1367 139.379 36.1367C140.094 36.1367 140.736 36.2906 141.307 36.5984C141.886 36.8971 142.343 37.3316 142.678 37.9019C143.013 38.4632 143.181 39.1376 143.181 39.9252C143.181 40.0067 143.176 40.1017 143.167 40.2104C143.158 40.3099 143.149 40.405 143.14 40.4955H137.206V39.2598H142.026L141.212 39.6265C141.212 39.2463 141.135 38.9158 140.981 38.6352C140.827 38.3546 140.614 38.1373 140.343 37.9834C140.071 37.8205 139.754 37.739 139.392 37.739C139.03 37.739 138.709 37.8205 138.428 37.9834C138.156 38.1373 137.944 38.3591 137.79 38.6488C137.636 38.9294 137.559 39.2644 137.559 39.6536V39.9795C137.559 40.3778 137.645 40.7309 137.817 41.0387C137.998 41.3374 138.247 41.5683 138.564 41.7312C138.89 41.8851 139.27 41.962 139.704 41.962C140.094 41.962 140.433 41.9032 140.723 41.7855C141.022 41.6678 141.293 41.4913 141.538 41.2559L142.665 42.478C142.33 42.8583 141.909 43.1525 141.402 43.3607C140.895 43.5598 140.311 43.6594 139.65 43.6594ZM147.049 43.6594C146.424 43.6594 145.822 43.587 145.243 43.4421C144.672 43.2883 144.22 43.0981 143.885 42.8718L144.591 41.351C144.926 41.5592 145.32 41.7312 145.772 41.867C146.234 41.9937 146.687 42.0571 147.13 42.0571C147.619 42.0571 147.963 41.9983 148.162 41.8806C148.37 41.7629 148.475 41.5999 148.475 41.3917C148.475 41.2197 148.393 41.093 148.23 41.0115C148.076 40.921 147.868 40.8531 147.605 40.8078C147.343 40.7626 147.053 40.7173 146.736 40.672C146.429 40.6268 146.116 40.5679 145.799 40.4955C145.483 40.414 145.193 40.2964 144.93 40.1425C144.668 39.9886 144.455 39.7804 144.292 39.5178C144.138 39.2553 144.061 38.9158 144.061 38.4994C144.061 38.0377 144.193 37.6304 144.455 37.2773C144.727 36.9243 145.116 36.6481 145.623 36.449C146.13 36.2408 146.736 36.1367 147.443 36.1367C147.94 36.1367 148.447 36.191 148.963 36.2996C149.479 36.4083 149.909 36.5667 150.253 36.7749L149.547 38.2821C149.194 38.0739 148.837 37.9336 148.475 37.8612C148.121 37.7797 147.777 37.739 147.443 37.739C146.972 37.739 146.628 37.8024 146.411 37.9291C146.193 38.0558 146.085 38.2188 146.085 38.4179C146.085 38.599 146.162 38.7348 146.315 38.8253C146.478 38.9158 146.691 38.9883 146.954 39.0426C147.216 39.0969 147.501 39.1467 147.809 39.1919C148.126 39.2281 148.443 39.287 148.76 39.3685C149.077 39.4499 149.362 39.5676 149.615 39.7215C149.878 39.8664 150.09 40.07 150.253 40.3326C150.416 40.586 150.498 40.921 150.498 41.3374C150.498 41.79 150.362 42.1929 150.09 42.5459C149.819 42.8899 149.425 43.1615 148.909 43.3607C148.402 43.5598 147.782 43.6594 147.049 43.6594ZM155.281 43.6594C154.502 43.6594 153.81 43.4965 153.203 43.1706C152.606 42.8447 152.131 42.4011 151.778 41.8398C151.434 41.2695 151.262 40.6223 151.262 39.898C151.262 39.1648 151.434 38.5175 151.778 37.9563C152.131 37.3859 152.606 36.9424 153.203 36.6255C153.81 36.2996 154.502 36.1367 155.281 36.1367C156.05 36.1367 156.738 36.2996 157.345 36.6255C157.952 36.9424 158.427 37.3814 158.771 37.9427C159.115 38.5039 159.287 39.1557 159.287 39.898C159.287 40.6223 159.115 41.2695 158.771 41.8398C158.427 42.4011 157.952 42.8447 157.345 43.1706C156.738 43.4965 156.05 43.6594 155.281 43.6594ZM155.281 41.9213C155.634 41.9213 155.951 41.8398 156.232 41.6769C156.512 41.5139 156.734 41.2831 156.897 40.9844C157.06 40.6766 157.141 40.3145 157.141 39.898C157.141 39.4726 157.06 39.1105 156.897 38.8117C156.734 38.513 156.512 38.2821 156.232 38.1192C155.951 37.9563 155.634 37.8748 155.281 37.8748C154.928 37.8748 154.611 37.9563 154.33 38.1192C154.05 38.2821 153.824 38.513 153.652 38.8117C153.489 39.1105 153.407 39.4726 153.407 39.898C153.407 40.3145 153.489 40.6766 153.652 40.9844C153.824 41.2831 154.05 41.5139 154.33 41.6769C154.611 41.8398 154.928 41.9213 155.281 41.9213ZM160.703 43.5508V36.2453H162.726V38.3093L162.441 37.7118C162.658 37.1958 163.007 36.8066 163.486 36.544C163.966 36.2725 164.55 36.1367 165.238 36.1367V38.092C165.148 38.083 165.066 38.0785 164.994 38.0785C164.921 38.0694 164.844 38.0649 164.763 38.0649C164.183 38.0649 163.713 38.2324 163.351 38.5673C162.998 38.8932 162.821 39.4047 162.821 40.1017V43.5508H160.703ZM169.737 43.6594C168.877 43.6594 168.207 43.4421 167.727 43.0076C167.247 42.564 167.008 41.9077 167.008 41.0387V34.6294H169.126V41.0115C169.126 41.3193 169.207 41.5592 169.37 41.7312C169.533 41.8941 169.755 41.9756 170.036 41.9756C170.371 41.9756 170.656 41.8851 170.891 41.704L171.461 43.1977C171.244 43.3516 170.982 43.4693 170.674 43.5508C170.375 43.6232 170.063 43.6594 169.737 43.6594ZM165.881 38.0377V36.4083H170.945V38.0377H165.881Z" fill="white"/>
<defs>
<clipPath id="clip0_3004_7630">
<rect width="64.9306" height="27.1579" fill="white" transform="translate(53.75)"/>
</clipPath>
</defs>
</svg>
